<?xml version="1.0" encoding="utf-8"?>
<!-- Generator: Adobe Illustrator 21.1.0, SVG Export Plug-In . SVG Version: 6.00 Build 0)  -->
<svg version="1.1" xmlns="http://www.w3.org/2000/svg" xmlns:xlink="http://www.w3.org/1999/xlink" x="0px" y="0px"
	 viewBox="0 0 311 369" style="enable-background:new 0 0 311 369;" xml:space="preserve">
<style type="text/css">
	.st0{fill:none;stroke:#CCCCCC;stroke-width:10;stroke-miterlimit:10;}
</style>
<g id="Mag_x5F_Glass">
</g>
<g id="HamBurg">
	<g>
		<circle id="Outer_Circle_1_" class="st0" cx="155.5" cy="184.5" r="108"/>
		<path id="Top_Rect" class="st0" d="M208.5,138.6c0,7.6-4.6,13.9-10.3,13.9h-87.4c-5.7,0-10.3-6.3-10.3-13.9v-3.4
			c0-7.6,4.6-13.7,10.3-13.7h87.4c5.7,0,10.3,6.1,10.3,13.7V138.6z"/>
		<line id="Top_Line" class="st0" x1="139.5" y1="136.5" x2="193.5" y2="136.5"/>
		<path id="Middle_Rect" class="st0" d="M208.5,186.2c0,7.6-4.6,13.3-10.3,13.3h-87.4c-5.7,0-10.3-5.7-10.3-13.3v-3.4
			c0-7.6,4.6-13.3,10.3-13.3h87.4c5.7,0,10.3,5.7,10.3,13.3V186.2z"/>
		<line id="Middle_Line" class="st0" x1="139.5" y1="184.5" x2="193.5" y2="184.5"/>
		<path id="Bottom_Rect" class="st0" d="M208.5,233.8c0,7.6-4.6,13.7-10.3,13.7h-87.4c-5.7,0-10.3-6.1-10.3-13.7v-3.4
			c0-7.6,4.6-13.9,10.3-13.9h87.4c5.7,0,10.3,6.3,10.3,13.9V233.8z"/>
		<line id="Bottom_Line" class="st0" x1="139.5" y1="232.5" x2="193.5" y2="232.5"/>
	</g>
</g>
</svg>
